<svg width="40" height="40" viewBox="0 0 40 40" fill="none" xmlns="http://www.w3.org/2000/svg">
<rect width="40" height="40" rx="4" fill="#212E3B"/>
<rect width="24" height="24" transform="translate(8 8)" fill="#212E3B"/>
<path fill-rule="evenodd" clip-rule="evenodd" d="M20 32C26.6274 32 32 26.6274 32 20C32 13.3726 26.6274 8 20 8C13.3726 8 8 13.3726 8 20C8 26.6274 13.3726 32 20 32ZM20 29C24.9705 29 29 24.9705 29 20C29 15.0294 24.9705 11 20 11C15.0294 11 11 15.0294 11 20C11 24.9705 15.0294 29 20 29ZM21.1951 21.2544L15.9624 24.1623L18.8703 18.9296L18.9657 18.8342L24.1984 15.9262L21.2905 21.159L21.1951 21.2544Z" fill="white"/>
</svg>